<svg width="219" height="130" viewBox="0 0 219 130" fill="none" xmlns="http://www.w3.org/2000/svg">
<path d="M217.524 61.78C217.384 51.9267 209.413 44.0884 199.674 44.2268C189.936 44.3651 182.191 52.4266 182.331 62.28C182.745 91.3921 163.837 116.187 137.718 124.286C143.275 125.886 149.264 126.697 155.351 126.611C190.21 126.004 218.023 96.9385 217.524 61.78Z" fill="#FF5733"/>
<path d="M199.028 107.848C205.682 100.921 205.525 89.8365 198.677 83.1023C191.829 76.368 180.873 76.5236 174.219 83.4497C154.476 104.001 124.204 108.015 100.333 95.1386C103.171 100.138 106.781 104.902 111.047 109.097C135.744 133.385 175.142 132.825 199.028 107.848Z" fill="#FFC301"/>
<path d="M155.461 126.609C164.979 126.474 172.725 118.525 172.587 108.783C172.45 99.1538 164.59 91.3141 154.962 91.4508C126.631 91.8533 102.454 73.046 94.5549 46.8401C93.0851 52.4605 92.2825 58.2956 92.3699 64.4539C92.8662 99.3885 121.043 127.098 155.461 126.609Z" fill="#FF5733"/>
<path d="M1.49812 64.8488C1.35815 54.9955 9.10269 46.934 18.8415 46.7957C28.5804 46.6573 36.5509 54.4956 36.6908 64.3489C37.1044 93.461 56.7091 117.709 83.0474 125.062C77.5378 126.82 71.5744 127.801 65.4876 127.887C30.6253 128.271 1.99758 100.007 1.49812 64.8488Z" fill="#FF5733"/>
<path d="M21.1838 110.374C14.3359 103.64 14.1785 92.5548 20.8322 85.6288C27.486 78.7027 38.4422 78.5471 45.29 85.2813C65.609 105.263 95.9831 108.416 119.479 94.8667C116.783 99.9446 113.31 104.81 109.165 109.124C85.2789 134.102 45.8808 134.662 21.1838 110.374Z" fill="#FFC301"/>
<path d="M65.3768 127.889C55.8593 128.024 47.8905 120.298 47.7521 110.557C47.6153 100.927 55.2492 92.8673 64.8774 92.7305C93.2086 92.328 116.841 72.8416 123.993 46.4218C125.622 51.9983 126.59 57.8081 126.677 63.9665C127.173 98.901 99.6842 127.402 65.3768 127.889Z" fill="#FF5733"/>
<path d="M108.843 109.801C102.189 116.727 91.1223 116.884 84.2745 110.15C77.4266 103.416 77.2676 92.2185 83.9213 85.2925C103.774 64.6278 106.768 33.8994 93.3692 10.1234C98.389 12.8519 103.199 16.3673 107.575 20.5608C132.272 44.8483 132.84 84.8215 108.843 109.801Z" fill="#FFC301"/>
<path d="M110.152 108.438C110.601 108.88 111.05 109.321 111.499 109.763C111.948 110.205 112.397 110.646 112.955 110.974C113.393 110.632 113.94 110.176 114.376 109.722C122.885 100.866 128.378 90.1485 130.652 78.805C129.074 76.8116 127.605 74.7046 126.245 72.484C124.771 85.6081 119.416 98.2273 110.152 108.438Z" fill="#FFC301"/>
<path d="M126.911 64.8591C127.05 74.6005 119.414 82.5484 109.786 82.6852C100.158 82.822 92.2997 75.0941 92.1613 65.3528C91.7525 36.5765 72.3739 12.6615 46.2586 5.41702C51.7698 3.77084 57.5118 2.79332 63.5986 2.70685C98.1257 2.10437 126.417 30.0365 126.911 64.8591Z" fill="#FF5733"/>
<path d="M83.5843 45.988C74.0423 36.6042 62.2287 30.9484 50.0233 28.882C49.3116 25.5323 47.7161 22.3072 45.0218 19.6577C39.8579 14.5794 32.5363 13.4514 26.3722 15.8908C50.5676 -2.93162 85.3462 -1.40979 107.8 20.7817C114.648 27.516 114.807 38.7129 108.153 45.639C101.388 52.5666 90.4322 52.7223 83.5843 45.988Z" fill="#FFC301"/>
<path d="M64.4285 37.7487C51.1482 37.9373 38.8138 42.3683 28.7341 49.679C25.9403 47.8148 22.4921 46.6319 18.7293 46.6853C11.6465 46.7859 5.50951 51.1288 2.83027 57.3264C6.82278 26.6958 32.3868 2.92624 63.8168 2.47975C73.445 2.34298 81.3031 10.0708 81.4415 19.8122C81.6922 29.664 73.946 37.6134 64.4285 37.7487Z" fill="#FF5733"/>
<path d="M45.3797 44.8508C41.4529 48.9383 38.0858 53.4658 35.4982 58.3182C32.9664 51.5226 26.4776 46.6871 18.8415 46.7956C11.4267 46.901 5.1838 51.5814 2.73067 58.1118C4.08439 44.3175 9.86961 30.7962 20.232 20.0097C26.9949 12.9701 38.1724 12.8114 45.1325 19.656C51.9835 26.6142 52.1426 37.8112 45.3797 44.8508Z" fill="#FFC301"/>
<path d="M111.499 109.763C118.347 116.497 129.414 116.34 136.067 109.414C142.721 102.488 142.562 91.291 135.714 84.5567C115.283 64.4644 111.417 33.8334 124.135 9.68637C119.195 12.5564 114.487 16.207 110.231 20.5232C86.2341 45.5024 86.8019 85.4756 111.499 109.763Z" fill="#FFC301"/>
<path opacity="0.1" d="M110.152 108.438C110.601 108.88 111.05 109.321 111.499 109.763C111.948 110.205 112.397 110.646 112.955 110.974C113.393 110.632 113.94 110.176 114.376 109.722C122.885 100.866 128.378 90.1485 130.652 78.805C129.074 76.8116 127.605 74.7046 126.245 72.484C124.771 85.6081 119.416 98.2273 110.152 108.438Z" fill="black"/>
<path d="M92.1614 65.3527C92.2998 75.0941 100.158 82.822 109.786 82.6852C119.414 82.5484 127.05 74.6004 126.911 64.8591C126.503 36.0829 145.194 11.627 171.093 3.64361C165.537 2.15464 159.77 1.34062 153.683 1.42709C119.153 1.80563 91.6667 30.5301 92.1614 65.3527Z" fill="#FF5733"/>
<path d="M134.935 45.2585C144.206 35.6074 155.855 29.6183 167.996 27.206C168.613 23.8375 170.116 20.5683 172.734 17.8433C177.751 12.6204 185.038 11.2849 191.269 13.5483C166.549 -4.5793 131.827 -2.07016 110.013 20.7502C103.359 27.6762 103.518 38.8732 110.366 45.6075C117.214 52.3417 128.281 52.1845 134.935 45.2585Z" fill="#FFC301"/>
<path d="M153.849 36.4784C167.129 36.2897 179.585 40.3685 189.868 47.39C192.608 45.4472 196.021 44.1668 199.784 44.1133C206.866 44.0127 213.124 48.1795 215.978 54.2985C211.117 23.7937 184.888 0.759871 153.459 1.20636C143.83 1.34314 136.195 9.29108 136.333 19.0325C136.363 28.8874 144.221 36.6152 153.849 36.4784Z" fill="#FF5733"/>
<path d="M173.092 43.0365C177.133 47.0108 180.627 51.4409 183.352 56.2178C185.689 49.3531 192.038 44.3352 199.674 44.2267C207.089 44.1214 213.463 48.6226 216.1 55.0807C214.355 41.3304 208.188 27.9789 197.524 17.4912C190.563 10.6465 179.386 10.8053 172.623 17.8449C165.972 24.9949 166.132 36.1919 173.092 43.0365Z" fill="#FFC301"/>
<path opacity="0.25" d="M92.1486 64.457C91.9664 59.4199 91.234 54.6146 90.0605 49.9276C91.1735 50.3598 92.3941 50.5664 93.6146 50.7731C92.6822 55.266 92.1941 59.8646 92.1486 64.457Z" fill="black"/>
<path opacity="0.1" d="M86.0493 48.0808C88.8399 49.721 89.9514 50.0412 89.9514 50.0412C91.0644 50.4734 92.2849 50.6801 93.5055 50.8867C95.895 39.8775 101.287 29.8336 108.589 21.7784C108.252 21.4472 108.026 21.1145 107.689 20.7833C105.444 18.5753 103.203 16.7033 100.743 14.9464C94.5561 23.5457 88.4531 38.0793 86.0493 48.0808Z" fill="black"/>
</svg>
