<svg width="220" height="127" viewBox="0 0 220 127" fill="none" xmlns="http://www.w3.org/2000/svg">
<path d="M0.424988 62.2697C0.424988 52.4132 8.40627 44.4607 18.2986 44.4607C28.1909 44.4607 36.1721 52.4132 36.1721 62.2697C36.1721 91.3914 55.7319 115.921 82.3736 123.649C76.753 125.329 70.6827 126.225 64.5001 126.225C29.0901 126.113 0.424988 97.4398 0.424988 62.2697Z" fill="white"/>
<path d="M19.8723 108.08C13.0151 101.248 13.0151 90.1593 19.8723 83.3269C26.7295 76.4945 37.8583 76.4945 44.7154 83.3269C65.0621 103.6 95.8631 107.184 119.919 93.9675C117.109 99.0078 113.512 103.824 109.24 108.08C84.5094 132.722 44.4906 132.722 19.8723 108.08Z" fill="white"/>
<path d="M64.3876 126.225C54.7202 126.225 46.7389 118.385 46.7389 108.64C46.7389 99.0078 54.6078 91.0554 64.3876 91.0554C93.1652 91.0554 117.446 71.9023 125.09 45.5807C126.664 51.1811 127.563 57.0054 127.563 63.1658C127.563 98.1118 99.3479 126.225 64.3876 126.225Z" fill="white"/>
<path d="M219.854 62.2697C219.854 52.4132 211.873 44.4607 201.98 44.4607C192.088 44.4607 184.107 52.4132 184.107 62.2697C184.107 91.3914 164.547 115.921 137.905 123.649C143.526 125.329 149.596 126.225 155.779 126.225C191.189 126.113 219.854 97.4398 219.854 62.2697Z" fill="white"/>
<path d="M200.519 108.08C207.376 101.248 207.376 90.1593 200.519 83.3269C193.662 76.4945 182.533 76.4945 175.676 83.3269C155.329 103.6 124.528 107.184 100.472 93.9675C103.282 99.0078 106.88 103.824 111.151 108.08C135.77 132.722 175.788 132.722 200.519 108.08Z" fill="white"/>
<path d="M155.891 126.225C165.559 126.225 173.54 118.385 173.54 108.64C173.54 99.0078 165.671 91.0554 155.891 91.0554C127.114 91.0554 102.833 71.9023 95.1886 45.5807C93.6149 51.1811 92.7156 57.0054 92.7156 63.1658C92.7156 98.1118 121.044 126.225 155.891 126.225Z" fill="white"/>
<path d="M111.488 108.752C118.346 115.585 129.587 115.585 136.444 108.752C143.301 101.92 143.301 90.7194 136.444 83.887C115.985 63.5018 112.5 32.812 125.765 8.84265C120.706 11.6428 115.873 15.227 111.488 19.4833C86.7577 44.1247 86.7577 84.111 111.488 108.752Z" fill="white"/>
<path d="M110.139 107.408C109.69 107.856 109.24 108.304 108.791 108.752C108.341 109.2 107.891 109.648 107.329 109.984C106.88 109.648 106.317 109.2 105.868 108.752C97.0996 100.016 91.3666 89.3753 88.8936 78.0626C90.4673 76.0465 91.9287 73.9184 93.2776 71.6782C94.9638 84.783 100.584 97.3277 110.139 107.408Z" fill="white"/>
<path d="M92.4908 64.0618C92.4908 73.8063 100.36 81.6468 110.14 81.6468C119.919 81.6468 127.788 73.8063 127.788 64.0618C127.788 35.2761 147.123 11.0828 173.54 3.46632C167.919 1.89823 162.074 1.00216 155.891 1.00216C120.819 0.890156 92.4908 29.2278 92.4908 64.0618Z" fill="white"/>
<path d="M136.219 44.5727C145.774 35.0521 157.69 29.2278 170.055 26.9877C170.73 23.6275 172.304 20.3793 175.002 17.6911C180.172 12.5388 187.592 11.3067 193.887 13.6589C169.044 -4.8222 133.746 -2.80605 111.264 19.7072C104.406 26.5396 104.406 37.7403 111.264 44.5727C118.233 51.4051 129.362 51.4051 136.219 44.5727Z" fill="white"/>
<path d="M155.554 36.0602C169.044 36.0602 181.634 40.3164 191.976 47.4848C194.786 45.5807 198.271 44.3487 202.093 44.3487C209.287 44.3487 215.582 48.6049 218.393 54.7653C213.896 24.1875 187.592 0.778137 155.666 0.778137C145.887 0.778137 138.018 8.6186 138.018 18.3632C137.905 28.2197 145.887 36.0602 155.554 36.0602Z" fill="white"/>
<path d="M175.002 42.8925C179.048 46.9248 182.533 51.405 185.231 56.2213C187.704 49.3889 194.224 44.4606 201.98 44.4606C209.512 44.4606 215.92 49.0529 218.505 55.5493C216.931 41.7725 210.861 28.3317 200.182 17.6911C193.212 10.7467 181.859 10.7467 174.889 17.6911C168.032 24.7475 168.032 35.9481 175.002 42.8925Z" fill="white"/>
<path d="M108.791 108.752C101.933 115.585 90.6922 115.585 83.8351 108.752C76.9779 101.92 76.9779 90.7194 83.8351 83.887C104.294 63.5018 107.779 32.812 94.5142 8.84265C99.5728 11.6428 104.407 15.227 108.791 19.4833C133.521 44.1247 133.521 84.111 108.791 108.752Z" fill="white"/>
<path opacity="0.1" d="M110.139 107.408C109.69 107.856 109.24 108.304 108.791 108.752C108.341 109.2 107.891 109.648 107.329 109.984C106.88 109.648 106.317 109.2 105.868 108.752C97.0996 100.016 91.3666 89.3753 88.8936 78.0626C90.4673 76.0465 91.9287 73.9184 93.2776 71.6782C94.9638 84.783 100.584 97.3277 110.139 107.408Z" fill="black"/>
<path d="M127.788 64.0618C127.788 73.8063 119.919 81.6468 110.139 81.6468C100.36 81.6468 92.4907 73.8063 92.4907 64.0618C92.4907 35.2761 73.1558 11.0828 46.7389 3.46632C52.3595 1.89823 58.205 1.00216 64.3876 1.00216C99.4603 0.890156 127.788 29.2278 127.788 64.0618Z" fill="white"/>
<path d="M84.0598 44.5727C74.5048 35.0521 62.5891 29.2278 50.2237 26.9877C49.5492 23.6275 47.9755 20.3793 45.2776 17.6911C40.1066 12.5388 32.6874 11.3067 26.3923 13.6589C51.2354 -4.8222 86.5329 -2.80605 109.015 19.7072C115.873 26.5396 115.873 37.7403 109.015 44.5727C102.158 51.4051 90.917 51.4051 84.0598 44.5727Z" fill="white"/>
<path d="M64.7248 36.0602C51.2354 36.0602 38.6452 40.3164 28.3032 47.4848C25.4929 45.5807 22.0081 44.3487 18.1861 44.3487C10.9917 44.3487 4.6966 48.6049 1.88629 54.7653C6.38279 24.1875 32.6873 0.778137 64.6124 0.778137C74.3923 0.778137 82.2612 8.6186 82.2612 18.3632C82.3736 28.2197 74.5047 36.0602 64.7248 36.0602Z" fill="white"/>
<path d="M45.2775 42.8925C41.2307 46.9248 37.7459 51.405 35.048 56.2213C32.5749 49.3889 26.055 44.4606 18.2985 44.4606C10.7669 44.4606 4.35941 49.0529 1.77393 55.5493C3.3477 41.7725 9.41796 28.3317 20.0971 17.6911C27.0667 10.7467 38.4204 10.7467 45.3899 17.6911C52.2471 24.7475 52.2471 35.9481 45.2775 42.8925Z" fill="white"/>
<path opacity="0.25" d="M127.788 63.1658C127.901 58.1255 128.575 53.3092 129.699 48.6049C128.575 49.0529 127.339 49.2769 126.102 49.501C127.114 53.9812 127.676 58.5735 127.788 63.1658Z" fill="black"/>
<path opacity="0.1" d="M133.746 46.7008C130.936 48.3809 129.812 48.7169 129.812 48.7169C128.688 49.1649 127.451 49.389 126.214 49.613C123.629 38.6364 118.008 28.6677 110.477 20.7153C110.814 20.3793 111.039 20.0433 111.376 19.7073C113.624 17.4671 115.873 15.563 118.346 13.7709C124.753 22.2834 131.161 36.7322 133.746 46.7008Z" fill="black"/>
</svg>
